# xmcd
#
# Track frame offsets:
#	150
#	11147
#	24824
#	39603
#	45138
#	58415
#	72816
#	92276
#	120452
#	146152
#	157939
#
# Disc length: 2416 seconds
#
# Revision: 1
# Processed by: cddbd v1.5.2PL0 Copyright (c) Steve Scherf et al.
# Submitted via: audiograbber 1.83.01
#
DISCID=82096e0b
DTITLE=Furious Billy - 10 Songs
DYEAR=2003
DGENRE=alt. Country Rock
TTITLE0=What I'm Here For
TTITLE1=It Ain't So Bad
TTITLE2=Mind Eraser
TTITLE3=Honeymoon Leaf
TTITLE4=Excuse Me
TTITLE5=That Ain't Me
TTITLE6=Ghost Of Missouri
TTITLE7=Look At My Shoes
TTITLE8=Good Place To Get Drunk
TTITLE9=Not A Lot To Go On
TTITLE10=Closing Credits
EXTD=
EXTT0=
EXTT1=
EXTT2=
EXTT3=
EXTT4=
EXTT5=
EXTT6=
EXTT7=
EXTT8=
EXTT9=
EXTT10=
PLAYORDER=
